<svg width="48" height="49" viewBox="0 0 48 49" fill="none" xmlns="http://www.w3.org/2000/svg">
<g filter="url(#filter0_dd_223_206)">
<rect x="8" y="6.5" width="32" height="32" rx="16" fill="white" shape-rendering="crispEdges"/>
<path d="M24 26.25C26.0711 26.25 27.75 24.5711 27.75 22.5C27.75 20.4289 26.0711 18.75 24 18.75C21.9289 18.75 20.25 20.4289 20.25 22.5C20.25 24.5711 21.9289 26.25 24 26.25Z" stroke="black" stroke-linecap="round" stroke-linejoin="round"/>
<path d="M24 16.75V15.5" stroke="black" stroke-linecap="round" stroke-linejoin="round"/>
<path d="M19.9313 18.4313L19.05 17.55" stroke="black" stroke-linecap="round" stroke-linejoin="round"/>
<path d="M18.25 22.5H17" stroke="black" stroke-linecap="round" stroke-linejoin="round"/>
<path d="M19.9313 26.5687L19.05 27.45" stroke="black" stroke-linecap="round" stroke-linejoin="round"/>
<path d="M24 28.25V29.5" stroke="black" stroke-linecap="round" stroke-linejoin="round"/>
<path d="M28.0686 26.5687L28.9499 27.45" stroke="black" stroke-linecap="round" stroke-linejoin="round"/>
<path d="M29.75 22.5H31" stroke="black" stroke-linecap="round" stroke-linejoin="round"/>
<path d="M28.0686 18.4313L28.9499 17.55" stroke="black" stroke-linecap="round" stroke-linejoin="round"/>
</g>
<defs>
<filter id="filter0_dd_223_206" x="0" y="0.5" width="48" height="48" filterUnits="userSpaceOnUse" color-interpolation-filters="sRGB">
<feFlood flood-opacity="0" result="BackgroundImageFix"/>
<feColorMatrix in="SourceAlpha" type="matrix" values="0 0 0 0 0 0 0 0 0 0 0 0 0 0 0 0 0 0 127 0" result="hardAlpha"/>
<feOffset dy="2"/>
<feGaussianBlur stdDeviation="4"/>
<feComposite in2="hardAlpha" operator="out"/>
<feColorMatrix type="matrix" values="0 0 0 0 0 0 0 0 0 0 0 0 0 0 0 0 0 0 0.1 0"/>
<feBlend mode="normal" in2="BackgroundImageFix" result="effect1_dropShadow_223_206"/>
<feColorMatrix in="SourceAlpha" type="matrix" values="0 0 0 0 0 0 0 0 0 0 0 0 0 0 0 0 0 0 127 0" result="hardAlpha"/>
<feOffset dy="4"/>
<feGaussianBlur stdDeviation="2"/>
<feComposite in2="hardAlpha" operator="out"/>
<feColorMatrix type="matrix" values="0 0 0 0 0 0 0 0 0 0 0 0 0 0 0 0 0 0 0.25 0"/>
<feBlend mode="normal" in2="effect1_dropShadow_223_206" result="effect2_dropShadow_223_206"/>
<feBlend mode="normal" in="SourceGraphic" in2="effect2_dropShadow_223_206" result="shape"/>
</filter>
</defs>
</svg>

